# xmcd CD database file
#
# Track frame offsets:
#	150
#	18222
#	30358
#	69585
#	91340
#	109632
#	148821
#	163560
#	179685
#
# Disc length: 2786 seconds
#
# Revision: 0
# Processed by: cddbd v1.5.2PL0 Copyright (c) Steve Scherf et al.
# Submitted via: CDex 1.50Beta3
#
DISCID=6f0ae009
DTITLE=Charles Mingus - Mysterious Blues [CD3]
DYEAR=1900
DGENRE=Jazz
TTITLE0=Bass-ically Speaking
TTITLE1=Cheek to Cheek
TTITLE2=Four Hands
TTITLE3=Cherokee
TTITLE4=I'm Yours
TTITLE5=Mysterious Blues
TTITLE6=These Foolish Things
TTITLE7=Too Marvellous for Words
TTITLE8=Thrice Upon a Theme
EXTD=
EXTT0=
EXTT1=
EXTT2=
EXTT3=
EXTT4=
EXTT5=
EXTT6=
EXTT7=
EXTT8=
PLAYORDER=
